<svg xmlns="http://www.w3.org/2000/svg" width="20.133" height="19.501" viewBox="0 0 20.133 19.501">
  <g id="icon" transform="translate(-1.258 -3.249)">
    <path id="Path_15958" data-name="Path 15958" d="M11,22.75A9.75,9.75,0,1,1,19.45,8.12a.76.76,0,0,1-.28,1,.75.75,0,0,1-1-.27A8.25,8.25,0,1,0,19.25,13a.75.75,0,1,1,1.5,0A9.76,9.76,0,0,1,11,22.75Z"/>
    <path id="Path_15959" data-name="Path 15959" d="M10.64,16.75a.78.78,0,0,1-.48-.17l-3.64-3a.766.766,0,1,1,1-1.16L10.62,15l9.52-8.6a.751.751,0,0,1,1,1.12l-10,9a.73.73,0,0,1-.5.23Z"/>
  </g>
</svg>
