<svg id="recur_logo" xmlns="http://www.w3.org/2000/svg" width="36" height="36" viewBox="0 0 36 36">
  <g id="Artboard-Copy-3">
    <g id="Recur-Logo-Black">
      <g id="Group" transform="translate(0 0)">
        <g id="Logo" transform="translate(6.545 10.227)">
          <path id="RECUR" d="M.818,0H2.881A.818.818,0,0,1,3.7.818V13.983a.818.818,0,0,1-.818.818H.818A.818.818,0,0,1,0,13.983V.818A.818.818,0,0,1,.818,0ZM5.8,11.051H7.938a.818.818,0,0,1,.818.818v2.143a.818.818,0,0,1-.818.818H5.8a.818.818,0,0,1-.818-.818V11.869A.818.818,0,0,1,5.8,11.051Zm4.968,0h2.142a.818.818,0,0,1,.818.818v2.143a.818.818,0,0,1-.818.818H10.764a.818.818,0,0,1-.818-.818V11.869A.818.818,0,0,1,10.764,11.051Zm4.968,0h2.142a.818.818,0,0,1,.818.818v2.143a.818.818,0,0,1-.818.818H15.732a.818.818,0,0,1-.818-.818V11.869A.818.818,0,0,1,15.732,11.051Zm4.968,0h2.142a.818.818,0,0,1,.818.818v2.143a.818.818,0,0,1-.818.818H20.7a.818.818,0,0,1-.818-.818V11.869A.818.818,0,0,1,20.7,11.051Z" transform="translate(0 0)" fill="#fff" fill-rule="evenodd"/>
        </g>
        <path id="Combined-Shape" d="M1.317,18V33.456a1.227,1.227,0,0,0,1.227,1.227H8.78V36H2.455A2.455,2.455,0,0,1,0,33.545V18ZM33.545,0A2.455,2.455,0,0,1,36,2.455V33.545A2.455,2.455,0,0,1,33.545,36H13.61V34.683H33.456a1.227,1.227,0,0,0,1.225-1.155l0-.072V2.544a1.227,1.227,0,0,0-1.227-1.227h-5.8V0ZM22.829,0V1.317H2.544A1.227,1.227,0,0,0,1.319,2.472l0,.072V13.171H0V2.455A2.455,2.455,0,0,1,2.455,0Z" transform="translate(0 0)" fill="#00df9a" fill-rule="evenodd"/>
      </g>
    </g>
  </g>
</svg>
