<svg xmlns="http://www.w3.org/2000/svg" width="50.011" height="50.008" viewBox="0 0 50.011 50.008">
  <g id="time" transform="translate(0 -0.019)">
    <path id="Path_15974" data-name="Path 15974" d="M37.363,60.395c-18.911-9.063-14.691-37.27,6.178-40.3a21.274,21.274,0,0,0-6.5,42.043C37.147,61.56,37.258,60.978,37.363,60.395Z" transform="translate(-17.443 -17.919)" fill="#c7daff"/>
    <path id="Path_15975" data-name="Path 15975" d="M19.4,46.147C19.517,46.168,19.287,46.147,19.4,46.147ZM23.164,3.934A19.279,19.279,0,0,1,42.216,19.918a1.956,1.956,0,0,0,3.854-.67A23.381,23.381,0,0,0,23.164.022C-5.319.986-8.647,40.459,19.4,46.147a1.956,1.956,0,0,0,.342-3.882C-3.242,37.587-.286,4.507,23.164,3.934ZM48.055,38.868a1.956,1.956,0,0,0-2.5,1.177c-3.637,9.686-17.9,7.214-18.035-3.151A9.205,9.205,0,0,1,40.685,28.5a1.956,1.956,0,1,0,1.635-3.554A13.117,13.117,0,0,0,23.6,36.894c.2,14.73,20.459,18.244,25.628,4.477a1.956,1.956,0,0,0-1.177-2.5Z" transform="translate(0 0)" fill="#2368f6"/>
    <path id="Path_15976" data-name="Path 15976" d="M178.783,112.036l-7.634,7.706a4.956,4.956,0,0,1-7.07,0l-2.756-2.821a1.956,1.956,0,0,1,2.8-2.734l2.75,2.815a1.049,1.049,0,0,0,1.494-.006L176,109.283a1.956,1.956,0,1,1,2.779,2.753Zm-24.374-10.7V91a1.956,1.956,0,1,0-3.912,0v10.333a2.933,2.933,0,0,0-.967,2.428l-5.589,5.5a1.956,1.956,0,0,0,2.745,2.787l5.687-5.6a2.94,2.94,0,0,0,2.036-5.119Z" transform="translate(-129.338 -80.318)" fill="#343434"/>
  </g>
</svg>
